# xmcd CD database file
#
# Track frame offsets:
#	150
#	19659
#	33840
#	51929
#	69417
#	79663
#	97272
#	109323
#	128034
#	141478
#	153017
#	172376
#	188554
#	208623
#	233323
#	246156
#	262669
#	280972
#	299166
#	318229
#	335643
#
# Disc length: 4694 seconds
#
# Revision: 1
# Processed by: cddbd v1.5.2PL0 Copyright (c) Steve Scherf et al.
# Submitted via: CDex 1.51
#
DISCID=32125415
DTITLE=Various Artist - ZM-Party-BS-Disc-2
DYEAR=1900
DGENRE=Blues
TTITLE0=Black Eyed Peas The - I Gotta Feelin'
TTITLE1=Jackson Five The - I Want You Back
TTITLE2=Gloria Gaynor - I Will Survive
TTITLE3=Pointer Sisters The - I'm So Excited
TTITLE4=Tom Jones - It's Not Unusual
TTITLE5=Weather Girls The - It's Raining Men
TTITLE6=Elvis Presley - Jailhouse Rock
TTITLE7=Culture Club - Karma Chameleon
TTITLE8=Spencer Davis Group - Keep On Running
TTITLE9=Connie Francis - Lipstick On Your Collar
TTITLE10=Ricky Martin - Livin' La Vida Loca
TTITLE11=Smokie - Living Next Door To Alice
TTITLE12=B.52s The - Love Shack
TTITLE13=Rod Sterwart - Maggie May
TTITLE14=Bucks Fizz - Making Your Mind Up
TTITLE15=ABBA - Mamma Mia
TTITLE16=Madonna - Material Girl
TTITLE17=Simon and Garfunkel - Mrs Robinson
TTITLE18=Commitments The - Mustang Sally
TTITLE19=Rick Astley - Never Gonna Give You Up
TTITLE20=Frank Sinatra - New York New York
EXTD=
EXTT0=
EXTT1=
EXTT2=
EXTT3=
EXTT4=
EXTT5=
EXTT6=
EXTT7=
EXTT8=
EXTT9=
EXTT10=
EXTT11=
EXTT12=
EXTT13=
EXTT14=
EXTT15=
EXTT16=
EXTT17=
EXTT18=
EXTT19=
EXTT20=
PLAYORDER=
